<svg id="Layer_1" data-name="Layer 1" xmlns="http://www.w3.org/2000/svg" viewBox="0 0 555 542"><defs><style>.cls-1{fill:#fff;}</style></defs><title>linkedin-logo-ios-7-interface-symbol_318-33633</title><path d="M22,617.27Q22,419,22,220.73c.5-1.92,1.06-3.84,1.51-5.78C31.08,181.76,51.4,160.21,85,150.79c3.79-1.06,7.67-1.87,11.5-2.79H502.53c2,.49,3.94,1,5.92,1.45,34,7.42,56.09,27.22,65.69,60,1.09,3.71,1.91,7.49,2.86,11.23V617.27c-.48,1.78-1,3.55-1.43,5.35-7.49,33.59-28,55.32-61.95,64.7-3.67,1-7.4,1.79-11.1,2.67H96.47c-1.83-.46-3.64-1-5.48-1.38-34.19-7.3-56.43-27.15-66.14-60.12C23.76,624.8,22.94,621,22,617.27Zm322.25-250c0-10.66-.07-20.15,0-29.64,0-2.77-.52-4.15-3.86-4.13q-37.89.17-75.78,0c-3.26,0-4,1.22-3.9,4.09q.37,11.46.35,22.93Q261,467,260.68,573.43c0,4.51,1.3,5.51,5.7,5.47q36.34-.3,72.67,0c4,0,5.37-.9,5.3-5-.25-13.41-.12-26.83-.08-40.25.1-32.45.37-64.91.31-97.36,0-19.83,16.85-42.25,41.82-43.85,14.63-.93,30,3.85,37.67,18.3,5.45,10.23,7.68,21.14,7.71,32.51q.18,65.13.12,130.26c0,4.08,1,5.43,5.37,5.4q36.56-.3,73.12,0c3.92,0,5.36-.86,5.35-5-.15-45,0-90-.15-135-.08-20.45-2.61-40.58-11.29-59.52-8.75-19.1-22.24-33.73-41.89-42.71-16.22-7.42-33.35-9.54-51-8.42-21.13,1.34-39.56,8.84-54.18,24.19C353,356.9,349.08,361.73,344.25,367.26ZM214.8,456.59c0-39.39,0-78.79.08-118.18,0-3.71-.92-5-4.93-5q-36.79.26-73.58,0c-4.38,0-5.33,1.35-5.33,5.4q.18,117.31,0,234.63c0,4,.92,5.47,5.34,5.44,24.23-.21,48.46-.1,72.7-.1,5.7,0,5.71,0,5.71-5.77Q214.8,514.81,214.8,456.59Zm-39.4-241.13c-20.62-.11-41.38,9.12-47.79,32-4.86,17.35,4.73,39.5,21.31,47.35,10.05,4.76,20.5,6,31.45,4.83,31.86-3.37,48.72-33.45,35.14-60.76C207.25,222.26,192.15,216.12,175.39,215.46Z" transform="translate(-22 -148)"/><path class="cls-1" d="M96.47,148c-3.84.92-7.71,1.72-11.5,2.79-33.57,9.42-53.89,31-61.46,64.16-.44,1.94-1,3.85-1.51,5.78V148Z" transform="translate(-22 -148)"/><path class="cls-1" d="M22,617.27c.94,3.74,1.76,7.53,2.85,11.23,9.71,33,31.95,52.82,66.14,60.12,1.84.39,3.65.92,5.48,1.38H22Z" transform="translate(-22 -148)"/><path class="cls-1" d="M502.53,690c3.7-.89,7.43-1.66,11.1-2.67,34-9.38,54.46-31.11,61.95-64.7.4-1.8.95-3.57,1.43-5.35V690Z" transform="translate(-22 -148)"/><path class="cls-1" d="M577,220.73c-.95-3.75-1.77-7.53-2.86-11.23-9.61-32.83-31.73-52.62-65.69-60-2-.43-3.95-1-5.92-1.45H577Z" transform="translate(-22 -148)"/><path class="cls-1" d="M344.25,367.26c4.83-5.54,8.74-10.37,13-14.86,14.61-15.35,33-22.85,54.18-24.19,17.61-1.12,34.73,1,51,8.42,19.64,9,33.13,23.61,41.89,42.71,8.68,18.95,11.2,39.07,11.29,59.52.19,45,0,90,.15,135,0,4.13-1.43,5-5.35,5q-36.56-.23-73.12,0c-4.38,0-5.38-1.32-5.37-5.4q.12-65.13-.12-130.26c0-11.38-2.25-22.29-7.71-32.51-7.7-14.45-23-19.23-37.67-18.3-25,1.59-41.86,24-41.82,43.85.06,32.45-.21,64.91-.31,97.36,0,13.42-.17,26.83.08,40.25.08,4.1-1.33,5-5.3,5q-36.34-.25-72.67,0c-4.39,0-5.72-1-5.7-5.47q.4-106.46.43-212.92,0-11.47-.35-22.93c-.09-2.87.64-4.11,3.9-4.09q37.89.17,75.78,0c3.34,0,3.89,1.36,3.86,4.13C344.18,347.11,344.25,356.61,344.25,367.26Z" transform="translate(-22 -148)"/><path class="cls-1" d="M214.79,456.59q0,58.22,0,116.45c0,5.76,0,5.77-5.71,5.77-24.23,0-48.47-.1-72.7.1-4.43,0-5.35-1.4-5.34-5.44q.16-117.31,0-234.63c0-4.05,1-5.43,5.33-5.4q36.79.3,73.58,0c4,0,4.94,1.24,4.93,5C214.75,377.8,214.8,417.2,214.79,456.59Z" transform="translate(-22 -148)"/><path class="cls-1" d="M175.39,215.46c16.76.66,31.86,6.8,40.11,23.38,13.59,27.31-3.28,57.39-35.14,60.76-10.94,1.16-21.39-.07-31.45-4.83-16.58-7.86-26.17-30-21.31-47.35C134,224.58,154.77,215.35,175.39,215.46Z" transform="translate(-22 -148)"/></svg>